<mxfile host="app.diagrams.net" agent="Mozilla/5.0 (Windows NT 10.0; Win64; x64) AppleWebKit/537.36 (KHTML, like Gecko) Chrome/131.0.0.0 Safari/537.36 Edg/131.0.0.0" version="24.9.0">
  <diagram id="C5RBs43oDa-KdzZeNtuy" name="Page-1">
    <mxGraphModel dx="1853" dy="561" grid="1" gridSize="10" guides="1" tooltips="1" connect="1" arrows="1" fold="1" page="1" pageScale="1" pageWidth="827" pageHeight="1169" math="0" shadow="0">
      <root>
        <mxCell id="WIyWlLk6GJQsqaUBKTNV-0" />
        <mxCell id="WIyWlLk6GJQsqaUBKTNV-1" parent="WIyWlLk6GJQsqaUBKTNV-0" />
        <mxCell id="q5MoAWhynA4X8tI6t1yL-0" value="&lt;font style=&quot;font-size: 23px;&quot;&gt;DatabaseHelper&lt;/font&gt;" style="swimlane;fontStyle=1;align=center;verticalAlign=top;childLayout=stackLayout;horizontal=1;startSize=40;horizontalStack=0;resizeParent=1;resizeParentMax=0;resizeLast=0;collapsible=1;marginBottom=0;whiteSpace=wrap;html=1;" parent="WIyWlLk6GJQsqaUBKTNV-1" vertex="1">
          <mxGeometry x="-640" y="40" width="690" height="264" as="geometry" />
        </mxCell>
        <mxCell id="q5MoAWhynA4X8tI6t1yL-2" value="" style="line;strokeWidth=1;fillColor=none;align=left;verticalAlign=middle;spacingTop=-1;spacingLeft=3;spacingRight=3;rotatable=0;labelPosition=right;points=[];portConstraint=eastwest;strokeColor=inherit;" parent="q5MoAWhynA4X8tI6t1yL-0" vertex="1">
          <mxGeometry y="40" width="690" height="8" as="geometry" />
        </mxCell>
        <mxCell id="q5MoAWhynA4X8tI6t1yL-3" value="&lt;font style=&quot;font-size: 23px;&quot;&gt;+ createTable(host: String, dbName, tblName: String, columns: String[])&lt;/font&gt;&lt;div&gt;&lt;font style=&quot;font-size: 23px;&quot;&gt;+ insertRow&lt;span style=&quot;background-color: initial;&quot;&gt;(host: String,&amp;nbsp;&lt;/span&gt;dbName&lt;span style=&quot;background-color: initial;&quot;&gt;,&amp;nbsp;&lt;/span&gt;tblName&lt;span style=&quot;background-color: initial;&quot;&gt;: String, values:Object[])&lt;/span&gt;&lt;/font&gt;&lt;/div&gt;&lt;div&gt;&lt;font style=&quot;font-size: 23px;&quot;&gt;&lt;span style=&quot;background-color: initial;&quot;&gt;+ deleteRow&lt;/span&gt;&lt;span style=&quot;background-color: initial;&quot;&gt;(host: String,&amp;nbsp;&lt;/span&gt;dbName&lt;span style=&quot;background-color: initial;&quot;&gt;,&amp;nbsp;&lt;/span&gt;tblName&lt;span style=&quot;background-color: initial;&quot;&gt;: String, criteria: String)&lt;/span&gt;&lt;/font&gt;&lt;/div&gt;" style="text;strokeColor=none;fillColor=none;align=left;verticalAlign=top;spacingLeft=4;spacingRight=4;overflow=hidden;rotatable=0;points=[[0,0.5],[1,0.5]];portConstraint=eastwest;whiteSpace=wrap;html=1;" parent="q5MoAWhynA4X8tI6t1yL-0" vertex="1">
          <mxGeometry y="48" width="690" height="216" as="geometry" />
        </mxCell>
        <mxCell id="q5MoAWhynA4X8tI6t1yL-7" value="&lt;font style=&quot;font-size: 23px;&quot;&gt;DatabaseHelper&lt;/font&gt;" style="swimlane;fontStyle=1;align=center;verticalAlign=top;childLayout=stackLayout;horizontal=1;startSize=40;horizontalStack=0;resizeParent=1;resizeParentMax=0;resizeLast=0;collapsible=1;marginBottom=0;whiteSpace=wrap;html=1;" parent="WIyWlLk6GJQsqaUBKTNV-1" vertex="1">
          <mxGeometry x="-640" y="400" width="400" height="260" as="geometry" />
        </mxCell>
        <mxCell id="q5MoAWhynA4X8tI6t1yL-8" value="&lt;font style=&quot;font-size: 23px;&quot;&gt;+ host: String&lt;/font&gt;&lt;div&gt;&lt;font style=&quot;font-size: 23px;&quot;&gt;+&amp;nbsp; dataBaseName: String&lt;/font&gt;&lt;/div&gt;&lt;div&gt;&lt;font style=&quot;font-size: 23px;&quot;&gt;+ tableName: String&lt;/font&gt;&lt;/div&gt;" style="text;strokeColor=none;fillColor=none;align=left;verticalAlign=top;spacingLeft=4;spacingRight=4;overflow=hidden;rotatable=0;points=[[0,0.5],[1,0.5]];portConstraint=eastwest;whiteSpace=wrap;html=1;" parent="q5MoAWhynA4X8tI6t1yL-7" vertex="1">
          <mxGeometry y="40" width="400" height="110" as="geometry" />
        </mxCell>
        <mxCell id="q5MoAWhynA4X8tI6t1yL-9" value="" style="line;strokeWidth=1;fillColor=none;align=left;verticalAlign=middle;spacingTop=-1;spacingLeft=3;spacingRight=3;rotatable=0;labelPosition=right;points=[];portConstraint=eastwest;strokeColor=inherit;" parent="q5MoAWhynA4X8tI6t1yL-7" vertex="1">
          <mxGeometry y="150" width="400" height="8" as="geometry" />
        </mxCell>
        <mxCell id="q5MoAWhynA4X8tI6t1yL-10" value="&lt;font style=&quot;font-size: 23px;&quot;&gt;+ createTable(columns: String[])&lt;/font&gt;&lt;div&gt;&lt;font style=&quot;font-size: 23px;&quot;&gt;+ insertRow&lt;span style=&quot;background-color: initial;&quot;&gt;(values:Object[])&lt;/span&gt;&lt;/font&gt;&lt;/div&gt;&lt;div&gt;&lt;font style=&quot;font-size: 23px;&quot;&gt;&lt;span style=&quot;background-color: initial;&quot;&gt;+ deleteRow(&lt;/span&gt;&lt;span style=&quot;background-color: initial;&quot;&gt;criteria: String)&lt;/span&gt;&lt;/font&gt;&lt;/div&gt;" style="text;strokeColor=none;fillColor=none;align=left;verticalAlign=top;spacingLeft=4;spacingRight=4;overflow=hidden;rotatable=0;points=[[0,0.5],[1,0.5]];portConstraint=eastwest;whiteSpace=wrap;html=1;" parent="q5MoAWhynA4X8tI6t1yL-7" vertex="1">
          <mxGeometry y="158" width="400" height="102" as="geometry" />
        </mxCell>
        <mxCell id="aQshSGhnd059hc-EDatI-2" value="" style="shape=flexArrow;endArrow=classic;html=1;rounded=0;" edge="1" parent="WIyWlLk6GJQsqaUBKTNV-1">
          <mxGeometry width="50" height="50" relative="1" as="geometry">
            <mxPoint x="-415" y="320" as="sourcePoint" />
            <mxPoint x="-415" y="390" as="targetPoint" />
          </mxGeometry>
        </mxCell>
        <mxCell id="aQshSGhnd059hc-EDatI-4" value="refactored to" style="edgeLabel;html=1;align=center;verticalAlign=middle;resizable=0;points=[];fontSize=21;" vertex="1" connectable="0" parent="aQshSGhnd059hc-EDatI-2">
          <mxGeometry x="-0.4571" y="-2" relative="1" as="geometry">
            <mxPoint x="87" y="1" as="offset" />
          </mxGeometry>
        </mxCell>
      </root>
    </mxGraphModel>
  </diagram>
</mxfile>
